<svg width="41" height="51" viewBox="0 0 41 51" fill="none" xmlns="http://www.w3.org/2000/svg">
<path opacity="0.4" fill-rule="evenodd" clip-rule="evenodd" d="M10.3095 48.6624C7.3377 47.3295 4.96309 45.4759 3.22317 43.0891L3.21956 43.0841C1.48605 40.6752 0.625 37.9058 0.625 34.8125V33.8125H15.3125V34.8125C15.3125 35.4874 15.5103 36.0741 15.915 36.6056C16.3323 37.1329 16.9306 37.5782 17.7568 37.9195C18.5757 38.2578 19.5263 38.4375 20.625 38.4375C21.6728 38.4375 22.5415 38.2506 23.2576 37.9096L23.2658 37.9057C24.0159 37.5568 24.5502 37.0986 24.9143 36.5446L24.9197 36.5363L24.9253 36.5282C25.3014 35.9796 25.5 35.3367 25.5 34.5625C25.5 33.825 25.282 33.2191 24.8531 32.6982L24.8429 32.6859L24.8332 32.6733C24.4052 32.1184 23.769 31.6538 22.8635 31.3098L22.8521 31.3055L22.8409 31.3008C21.9656 30.9436 20.9013 30.75 19.625 30.75H13.875V20H19.625C20.7642 20 21.7284 19.8103 22.5388 19.4579C23.3652 19.0986 23.9673 18.6347 24.3889 18.0856C24.7954 17.5361 25 16.9151 25 16.1875C25 15.4458 24.8175 14.8415 24.4804 14.3359C24.1297 13.8098 23.6366 13.3808 22.9683 13.0552L22.959 13.0507C22.3313 12.7369 21.563 12.5625 20.625 12.5625C19.5786 12.5625 18.6815 12.7489 17.9138 13.0979L17.9042 13.1022C17.1575 13.4322 16.5973 13.8851 16.1903 14.4541C15.8229 14.9755 15.625 15.6016 15.625 16.375V17.375H1.5V16.375C1.5 13.3291 2.32653 10.604 3.9951 8.23643L3.99875 8.23125C5.67478 5.88481 7.96614 4.07028 10.8364 2.77702C13.7162 1.45858 16.9863 0.8125 20.625 0.8125C24.1756 0.8125 27.3588 1.41523 30.1535 2.6475C32.9361 3.8745 35.1479 5.58176 36.7454 7.78565C38.375 10.0048 39.1875 12.5464 39.1875 15.375C39.1875 18.2224 38.1755 20.6275 36.1502 22.5131C35.0864 23.5027 33.8705 24.2687 32.5123 24.8162C34.6473 25.4617 36.4139 26.4541 37.7715 27.8261C39.848 29.9035 40.875 32.529 40.875 35.625C40.875 38.5722 39.9807 41.2154 38.1969 43.5186L38.1939 43.5224C36.423 45.7864 33.9893 47.5281 30.9406 48.7695C30.9402 48.7697 30.9399 48.7698 30.9396 48.7699L30.5625 47.8438L30.9419 48.769C30.9415 48.7692 30.941 48.7693 30.9406 48.7695C27.9015 50.0155 24.4144 50.625 20.5 50.625C16.7193 50.625 13.3186 49.9803 10.3176 48.666L10.3095 48.6624ZM11.25 3.6875C13.9792 2.4375 17.1042 1.8125 20.625 1.8125C24.0625 1.8125 27.1042 2.39583 29.75 3.5625C32.3958 4.72917 34.4583 6.33333 35.9375 8.375C37.4375 10.4167 38.1875 12.75 38.1875 15.375C38.1875 17.9583 37.2812 20.0938 35.4688 21.7812C34.1447 23.0129 32.5534 23.8748 30.6946 24.3669C30.0488 24.5379 29.3706 24.6643 28.6602 24.746L28.6597 24.75H28.625L28.6425 24.9051L28.625 25.0625H28.6602L28.6607 25.0665C29.3821 25.1477 30.0686 25.2563 30.7204 25.3924M2.53243 15.375C2.51081 15.7037 2.5 16.037 2.5 16.375V15.375H2.53243ZM1.65776 35.8125C1.63592 35.4837 1.625 35.1504 1.625 34.8125V35.8125H1.65776Z" fill="#6D3D70"/>
</svg>
