<svg xmlns="http://www.w3.org/2000/svg" xmlns:xlink="http://www.w3.org/1999/xlink"><defs><style>
    .sprite-symbol-usage {display: none;}
    .sprite-symbol-usage:target {display: inline;}
  </style><symbol viewBox="0 0 20 20" id="icon-arrow-circle">
<path fill-rule="evenodd" clip-rule="evenodd" d="M10 1.75C5.44365 1.75 1.75 5.44365 1.75 10C1.75 14.5563 5.44365 18.25 10 18.25C14.5563 18.25 18.25 14.5563 18.25 10C18.25 5.44365 14.5563 1.75 10 1.75ZM0.25 10C0.25 4.61522 4.61522 0.25 10 0.25C15.3848 0.25 19.75 4.61522 19.75 10C19.75 15.3848 15.3848 19.75 10 19.75C4.61522 19.75 0.25 15.3848 0.25 10ZM10.4697 5.46967C10.7626 5.17678 11.2374 5.17678 11.5303 5.46967L15.5303 9.46967C15.8232 9.76256 15.8232 10.2374 15.5303 10.5303L11.5303 14.5303C11.2374 14.8232 10.7626 14.8232 10.4697 14.5303C10.1768 14.2374 10.1768 13.7626 10.4697 13.4697L13.1893 10.75L5 10.75C4.58579 10.75 4.25 10.4142 4.25 10C4.25 9.58579 4.58579 9.25 5 9.25L13.1893 9.25L10.4697 6.53033C10.1768 6.23744 10.1768 5.76256 10.4697 5.46967Z" />
</symbol><symbol viewBox="0 0 10 6" id="icon-arrow-drop">
<path fill-rule="evenodd" clip-rule="evenodd" d="M0.646447 0.646447C0.841709 0.451184 1.15829 0.451184 1.35355 0.646447L5 4.29289L8.64645 0.646447C8.84171 0.451184 9.15829 0.451184 9.35355 0.646447C9.54882 0.841709 9.54882 1.15829 9.35355 1.35355L5.35355 5.35355C5.15829 5.54882 4.84171 5.54882 4.64645 5.35355L0.646447 1.35355C0.451184 1.15829 0.451184 0.841709 0.646447 0.646447Z" />
</symbol><symbol viewBox="0 0 15 16" fill="none" id="icon-arrow-drop-orange">
<path d="M15 8C15 12.1421 11.6421 15.5 7.5 15.5C3.35786 15.5 0 12.1421 0 8C0 3.85786 3.35786 0.5 7.5 0.5C11.6421 0.5 15 3.85786 15 8Z" fill="#F2994A" />
<path fill-rule="evenodd" clip-rule="evenodd" d="M2.29289 5.79289C2.68342 5.40237 3.31658 5.40237 3.70711 5.79289L7.5 9.58579L11.2929 5.79289C11.6834 5.40237 12.3166 5.40237 12.7071 5.79289C13.0976 6.18342 13.0976 6.81658 12.7071 7.20711L8.20711 11.7071C8.01957 11.8946 7.76522 12 7.5 12C7.23478 12 6.98043 11.8946 6.79289 11.7071L2.29289 7.20711C1.90237 6.81658 1.90237 6.18342 2.29289 5.79289Z" fill="white" />
</symbol><symbol viewBox="0 0 15 16" fill="none" id="icon-arrow-next-green">
<path d="M15 8C15 12.1421 11.6421 15.5 7.5 15.5C3.35786 15.5 0 12.1421 0 8C0 3.85786 3.35786 0.5 7.5 0.5C11.6421 0.5 15 3.85786 15 8Z" fill="#2AA7A4" />
<path fill-rule="evenodd" clip-rule="evenodd" d="M5.29289 12.7071C4.90237 12.3166 4.90237 11.6834 5.29289 11.2929L8.58579 8L5.29289 4.70711C4.90237 4.31658 4.90237 3.68342 5.29289 3.29289C5.68342 2.90237 6.31658 2.90237 6.70711 3.29289L10.7071 7.29289C10.8946 7.48043 11 7.73478 11 8C11 8.26522 10.8946 8.51957 10.7071 8.70711L6.70711 12.7071C6.31658 13.0976 5.68342 13.0976 5.29289 12.7071Z" fill="white" />
</symbol><symbol viewBox="0 0 15 16" fill="none" id="icon-arrow-next-purple">
<path d="M15 8C15 12.1421 11.6421 15.5 7.5 15.5C3.35786 15.5 0 12.1421 0 8C0 3.85786 3.35786 0.5 7.5 0.5C11.6421 0.5 15 3.85786 15 8Z" fill="#8A5B8F" />
<path fill-rule="evenodd" clip-rule="evenodd" d="M5.29289 12.7071C4.90237 12.3166 4.90237 11.6834 5.29289 11.2929L8.58579 8L5.29289 4.70711C4.90237 4.31658 4.90237 3.68342 5.29289 3.29289C5.68342 2.90237 6.31658 2.90237 6.70711 3.29289L10.7071 7.29289C10.8946 7.48043 11 7.73478 11 8C11 8.26522 10.8946 8.51957 10.7071 8.70711L6.70711 12.7071C6.31658 13.0976 5.68342 13.0976 5.29289 12.7071Z" fill="white" />
</symbol><symbol viewBox="0 0 25 24" id="icon-camera">
<path fill-rule="evenodd" clip-rule="evenodd" d="M9.90234 5.75098C9.76427 5.75098 9.65234 5.86291 9.65234 6.00098C9.65234 6.96747 8.86884 7.75098 7.90234 7.75098H5.40234C4.71199 7.75098 4.15234 8.31062 4.15234 9.00098V17.001C4.15234 17.6913 4.71199 18.251 5.40234 18.251H19.4023C20.0927 18.251 20.6523 17.6913 20.6523 17.001V9.00098C20.6523 8.31062 20.0927 7.75098 19.4023 7.75098H16.9023C15.9358 7.75098 15.1523 6.96747 15.1523 6.00098C15.1523 5.86291 15.0404 5.75098 14.9023 5.75098H9.90234ZM8.15234 6.00098C8.15234 5.03448 8.93585 4.25098 9.90234 4.25098H14.9023C15.8688 4.25098 16.6523 5.03448 16.6523 6.00098C16.6523 6.13905 16.7643 6.25098 16.9023 6.25098H19.4023C20.9211 6.25098 22.1523 7.48219 22.1523 9.00098V17.001C22.1523 18.5198 20.9211 19.751 19.4023 19.751H5.40234C3.88356 19.751 2.65234 18.5198 2.65234 17.001V9.00098C2.65234 7.48219 3.88356 6.25098 5.40234 6.25098H7.90234C8.04041 6.25098 8.15234 6.13905 8.15234 6.00098ZM12.4023 10.751C11.1597 10.751 10.1523 11.7583 10.1523 13.001C10.1523 14.2436 11.1597 15.251 12.4023 15.251C13.645 15.251 14.6523 14.2436 14.6523 13.001C14.6523 11.7583 13.645 10.751 12.4023 10.751ZM8.65234 13.001C8.65234 10.9299 10.3313 9.25098 12.4023 9.25098C14.4734 9.25098 16.1523 10.9299 16.1523 13.001C16.1523 15.072 14.4734 16.751 12.4023 16.751C10.3313 16.751 8.65234 15.072 8.65234 13.001Z" />
</symbol><symbol viewBox="0 0 27 20" id="icon-eye">
<path fill-rule="evenodd" clip-rule="evenodd" d="M6.76855 4.61387C4.77626 6.10179 3.1871 7.89317 2.24473 9.07572L2.24047 9.08106L2.24045 9.08105C2.08195 9.27718 2 9.51266 2 9.75C2 9.98734 2.08195 10.2228 2.24045 10.419L2.24474 10.4243L2.24473 10.4243C3.1871 11.6068 4.77626 13.3982 6.76855 14.8861C8.77062 16.3813 11.0854 17.5 13.5002 17.5C15.9149 17.5 18.2298 16.3813 20.2318 14.8861C22.2241 13.3983 23.8132 11.607 24.7556 10.4244C25.0811 10.0158 25.0819 9.48634 24.7555 9.0755C23.8131 7.89295 22.224 6.1017 20.2318 4.61387C18.2298 3.11866 15.9149 2 13.5002 2C11.0854 2 8.77062 3.11866 6.76855 4.61387ZM5.5718 3.01144C7.7436 1.38947 10.4768 0 13.5002 0C16.5236 0 19.2568 1.38947 21.4286 3.01144C23.6102 4.64071 25.3207 6.57558 26.3198 7.82928L26.3204 7.83004C27.2263 8.96912 27.2269 10.5319 26.3199 11.6706L26.3198 11.6707C25.3207 12.9244 23.6102 14.8593 21.4286 16.4886C19.2568 18.1105 16.5236 19.5 13.5002 19.5C10.4768 19.5 7.7436 18.1105 5.5718 16.4886C3.39166 14.8604 1.68194 12.9269 0.682582 11.6732C0.242776 11.1276 0 10.4512 0 9.75C0 9.04879 0.242763 8.37241 0.682548 7.82687C1.6819 6.5731 3.39163 4.63967 5.5718 3.01144ZM13.5002 7C11.8604 7 10.5991 8.26808 10.5991 9.75C10.5991 11.2319 11.8604 12.5 13.5002 12.5C15.14 12.5 16.4013 11.2319 16.4013 9.75C16.4013 8.26808 15.14 7 13.5002 7ZM8.59909 9.75C8.59909 7.08978 10.831 5 13.5002 5C16.1694 5 18.4013 7.08978 18.4013 9.75C18.4013 12.4102 16.1694 14.5 13.5002 14.5C10.831 14.5 8.59909 12.4102 8.59909 9.75Z" />
</symbol><symbol viewBox="0 0 21 23" id="icon-glass">
<path fill-rule="evenodd" clip-rule="evenodd" d="M10.1074 2C5.63605 2 2 5.6507 2 10.1681C2 14.6855 5.63605 18.3362 10.1074 18.3362C14.5787 18.3362 18.2147 14.6855 18.2147 10.1681C18.2147 5.6507 14.5787 2 10.1074 2ZM0 10.1681C0 4.55869 4.51897 0 10.1074 0C15.6958 0 20.2147 4.55869 20.2147 10.1681C20.2147 13.0906 18.9881 15.7279 17.0227 17.5839L20.7095 21.2952C21.0987 21.6871 21.0966 22.3202 20.7048 22.7095C20.3129 23.0987 19.6798 23.0966 19.2905 22.7048L15.4272 18.8157C13.8827 19.7794 12.0603 20.3362 10.1074 20.3362C4.51897 20.3362 0 15.7775 0 10.1681Z" />
</symbol></defs><use id="icon-arrow-circle-usage" xlink:href="#icon-arrow-circle" class="sprite-symbol-usage" /><use id="icon-arrow-drop-usage" xlink:href="#icon-arrow-drop" class="sprite-symbol-usage" /><use id="icon-arrow-drop-orange-usage" xlink:href="#icon-arrow-drop-orange" class="sprite-symbol-usage" /><use id="icon-arrow-next-green-usage" xlink:href="#icon-arrow-next-green" class="sprite-symbol-usage" /><use id="icon-arrow-next-purple-usage" xlink:href="#icon-arrow-next-purple" class="sprite-symbol-usage" /><use id="icon-camera-usage" xlink:href="#icon-camera" class="sprite-symbol-usage" /><use id="icon-eye-usage" xlink:href="#icon-eye" class="sprite-symbol-usage" /><use id="icon-glass-usage" xlink:href="#icon-glass" class="sprite-symbol-usage" /></svg>