<svg xmlns="http://www.w3.org/2000/svg" xmlns:xlink="http://www.w3.org/1999/xlink"><defs><style>
    .sprite-symbol-usage {display: none;}
    .sprite-symbol-usage:target {display: inline;}
  </style><symbol viewBox="0 0 26 49" fill="none" id="icon-1">
<path opacity="0.4" fill-rule="evenodd" clip-rule="evenodd" d="M25.1875 0.4375V49H10.5V14.6802L0.0625 20.9555V7.8771L12.2183 0.4375H25.1875ZM11.25 13.0625H11.5V48H24.1875V1.4375H12.5L1.0625 8.4375V19.1875L11.25 13.0625Z" fill="#6D3D70" />
</symbol><symbol viewBox="0 0 40 50" fill="none" id="icon-2">
<path opacity="0.4" fill-rule="evenodd" clip-rule="evenodd" d="M1.3125 50V39.467L19.0459 24.7954C19.0466 24.7949 19.0473 24.7943 19.048 24.7937C20.1739 23.852 21.1384 22.9783 21.9447 22.1723C22.7157 21.3813 23.282 20.5932 23.6639 19.8112L23.668 19.8028L23.6723 19.7945C24.0516 19.053 24.25 18.2115 24.25 17.25C24.25 16.2106 24.0233 15.3928 23.6208 14.7487L23.6131 14.7364L23.6057 14.7239C23.2038 14.0372 22.6486 13.5133 21.9195 13.1402L21.911 13.1359C21.203 12.765 20.3468 12.5625 19.3125 12.5625C18.2858 12.5625 17.4209 12.7723 16.6904 13.163L16.6828 13.1671C15.9894 13.5303 15.4425 14.063 15.0339 14.792C14.6543 15.5055 14.4375 16.4348 14.4375 17.625V18.625H0.4375V17.625C0.4375 14.2022 1.20204 11.1999 2.7749 8.66089L2.77825 8.65547C4.36541 6.12944 6.59861 4.19373 9.44461 2.84735C12.2919 1.47948 15.5904 0.8125 19.3125 0.8125C23.1453 0.8125 26.5164 1.42254 29.399 2.67679C32.2751 3.92823 34.5362 5.71636 36.1352 8.05643C37.7629 10.387 38.5625 13.1114 38.5625 16.1875C38.5625 18.1219 38.157 20.0345 37.3594 21.9188C36.5708 23.8099 35.1702 25.8517 33.2146 28.0412C31.2503 30.2403 28.4679 32.8181 24.8871 35.7708C24.8868 35.771 24.8865 35.7713 24.8862 35.7715L22.2721 37.9375H39.0625V50H1.3125ZM19.875 38.9375V38.625L24.25 35C27.8125 32.0625 30.5521 29.5208 32.4688 27.375C34.3854 25.2292 35.7083 23.2812 36.4375 21.5312C37.1875 19.7604 37.5625 17.9792 37.5625 16.1875C37.5625 13.2917 36.8125 10.7708 35.3125 8.625C33.8333 6.45833 31.7292 4.78125 29 3.59375C26.2708 2.40625 23.0417 1.8125 19.3125 1.8125C15.7083 1.8125 12.5625 2.45833 9.875 3.75C7.1875 5.02083 5.10417 6.83333 3.625 9.1875C2.31747 11.2982 1.5961 13.7774 1.46089 16.625C1.4453 16.9534 1.4375 17.2868 1.4375 17.625H13.4375C13.4375 16.3125 13.6771 15.2083 14.1562 14.3125C14.6562 13.4167 15.3438 12.7396 16.2188 12.2812C17.1146 11.8021 18.1458 11.5625 19.3125 11.5625C20.4792 11.5625 21.5 11.7917 22.375 12.25C23.2708 12.7083 23.9688 13.3646 24.4688 14.2188C24.9896 15.0521 25.25 16.0625 25.25 17.25C25.25 18.3542 25.0208 19.3542 24.5625 20.25C24.125 21.1458 23.4896 22.0208 22.6562 22.875C21.8229 23.7083 20.8333 24.6042 19.6875 25.5625L2.3125 39.9375V49H38.0625V38.9375H19.875Z" fill="#6D3D70" />
</symbol><symbol viewBox="0 0 41 51" fill="none" id="icon-3">
<path opacity="0.4" fill-rule="evenodd" clip-rule="evenodd" d="M10.3095 48.6624C7.3377 47.3295 4.96309 45.4759 3.22317 43.0891L3.21956 43.0841C1.48605 40.6752 0.625 37.9058 0.625 34.8125V33.8125H15.3125V34.8125C15.3125 35.4874 15.5103 36.0741 15.915 36.6056C16.3323 37.1329 16.9306 37.5782 17.7568 37.9195C18.5757 38.2578 19.5263 38.4375 20.625 38.4375C21.6728 38.4375 22.5415 38.2506 23.2576 37.9096L23.2658 37.9057C24.0159 37.5568 24.5502 37.0986 24.9143 36.5446L24.9197 36.5363L24.9253 36.5282C25.3014 35.9796 25.5 35.3367 25.5 34.5625C25.5 33.825 25.282 33.2191 24.8531 32.6982L24.8429 32.6859L24.8332 32.6733C24.4052 32.1184 23.769 31.6538 22.8635 31.3098L22.8521 31.3055L22.8409 31.3008C21.9656 30.9436 20.9013 30.75 19.625 30.75H13.875V20H19.625C20.7642 20 21.7284 19.8103 22.5388 19.4579C23.3652 19.0986 23.9673 18.6347 24.3889 18.0856C24.7954 17.5361 25 16.9151 25 16.1875C25 15.4458 24.8175 14.8415 24.4804 14.3359C24.1297 13.8098 23.6366 13.3808 22.9683 13.0552L22.959 13.0507C22.3313 12.7369 21.563 12.5625 20.625 12.5625C19.5786 12.5625 18.6815 12.7489 17.9138 13.0979L17.9042 13.1022C17.1575 13.4322 16.5973 13.8851 16.1903 14.4541C15.8229 14.9755 15.625 15.6016 15.625 16.375V17.375H1.5V16.375C1.5 13.3291 2.32653 10.604 3.9951 8.23643L3.99875 8.23125C5.67478 5.88481 7.96614 4.07028 10.8364 2.77702C13.7162 1.45858 16.9863 0.8125 20.625 0.8125C24.1756 0.8125 27.3588 1.41523 30.1535 2.6475C32.9361 3.8745 35.1479 5.58176 36.7454 7.78565C38.375 10.0048 39.1875 12.5464 39.1875 15.375C39.1875 18.2224 38.1755 20.6275 36.1502 22.5131C35.0864 23.5027 33.8705 24.2687 32.5123 24.8162C34.6473 25.4617 36.4139 26.4541 37.7715 27.8261C39.848 29.9035 40.875 32.529 40.875 35.625C40.875 38.5722 39.9807 41.2154 38.1969 43.5186L38.1939 43.5224C36.423 45.7864 33.9893 47.5281 30.9406 48.7695C30.9402 48.7697 30.9399 48.7698 30.9396 48.7699L30.5625 47.8438L30.9419 48.769C30.9415 48.7692 30.941 48.7693 30.9406 48.7695C27.9015 50.0155 24.4144 50.625 20.5 50.625C16.7193 50.625 13.3186 49.9803 10.3176 48.666L10.3095 48.6624ZM11.25 3.6875C13.9792 2.4375 17.1042 1.8125 20.625 1.8125C24.0625 1.8125 27.1042 2.39583 29.75 3.5625C32.3958 4.72917 34.4583 6.33333 35.9375 8.375C37.4375 10.4167 38.1875 12.75 38.1875 15.375C38.1875 17.9583 37.2812 20.0938 35.4688 21.7812C34.1447 23.0129 32.5534 23.8748 30.6946 24.3669C30.0488 24.5379 29.3706 24.6643 28.6602 24.746L28.6597 24.75H28.625L28.6425 24.9051L28.625 25.0625H28.6602L28.6607 25.0665C29.3821 25.1477 30.0686 25.2563 30.7204 25.3924M2.53243 15.375C2.51081 15.7037 2.5 16.037 2.5 16.375V15.375H2.53243ZM1.65776 35.8125C1.63592 35.4837 1.625 35.1504 1.625 34.8125V35.8125H1.65776Z" fill="#6D3D70" />
</symbol><symbol viewBox="0 0 43 49" fill="none" id="icon-4">
<path opacity="0.4" fill-rule="evenodd" clip-rule="evenodd" d="M0.875 41.75V30.6466L20.0757 0.4375H37.625V29.9375H43V41.75H37.625V49H23.5V41.75H0.875ZM24.5 40.75V48H36.625V40.75H42V30.9375H36.625V1.4375H20.625L1.875 30.9375V40.75H24.5ZM24.8125 14.5625H24.4375L14.3125 30.5625V30.9375H24.8125V14.5625ZM23.8125 17.4202L15.8914 29.9375H23.8125V17.4202Z" fill="#6D3D70" />
</symbol><symbol viewBox="0 0 73 53" id="icon-arrow-back">
<path fill-rule="evenodd" clip-rule="evenodd" d="M26.5 2C12.969 2 2 12.969 2 26.5C2 40.031 12.969 51 26.5 51C40.031 51 51 40.031 51 26.5C51 12.969 40.031 2 26.5 2ZM26.5 0C11.8645 0 0 11.8645 0 26.5C0 41.1355 11.8645 53 26.5 53C41.1355 53 53 41.1355 53 26.5C53 11.8645 41.1355 0 26.5 0Z" />
<path fill-rule="evenodd" clip-rule="evenodd" d="M31.1569 33.0711L24.7929 26.7072C24.4024 26.3166 24.4024 25.6835 24.7929 25.2929L31.1569 18.929C31.5474 18.5385 32.1805 18.5385 32.5711 18.929C32.9616 19.3195 32.9616 19.9527 32.5711 20.3432L27.9142 25.0001L72.5 25.0001V27.0001L27.9142 27.0001L32.5711 31.6569C32.9616 32.0474 32.9616 32.6806 32.5711 33.0711C32.1805 33.4616 31.5474 33.4616 31.1569 33.0711Z" />
</symbol><symbol viewBox="0 0 20 20" id="icon-arrow-circle">
<path fill-rule="evenodd" clip-rule="evenodd" d="M10 1.75C5.44365 1.75 1.75 5.44365 1.75 10C1.75 14.5563 5.44365 18.25 10 18.25C14.5563 18.25 18.25 14.5563 18.25 10C18.25 5.44365 14.5563 1.75 10 1.75ZM0.25 10C0.25 4.61522 4.61522 0.25 10 0.25C15.3848 0.25 19.75 4.61522 19.75 10C19.75 15.3848 15.3848 19.75 10 19.75C4.61522 19.75 0.25 15.3848 0.25 10ZM10.4697 5.46967C10.7626 5.17678 11.2374 5.17678 11.5303 5.46967L15.5303 9.46967C15.8232 9.76256 15.8232 10.2374 15.5303 10.5303L11.5303 14.5303C11.2374 14.8232 10.7626 14.8232 10.4697 14.5303C10.1768 14.2374 10.1768 13.7626 10.4697 13.4697L13.1893 10.75L5 10.75C4.58579 10.75 4.25 10.4142 4.25 10C4.25 9.58579 4.58579 9.25 5 9.25L13.1893 9.25L10.4697 6.53033C10.1768 6.23744 10.1768 5.76256 10.4697 5.46967Z" />
</symbol><symbol viewBox="0 0 10 6" id="icon-arrow-drop">
<path fill-rule="evenodd" clip-rule="evenodd" d="M0.646447 0.646447C0.841709 0.451184 1.15829 0.451184 1.35355 0.646447L5 4.29289L8.64645 0.646447C8.84171 0.451184 9.15829 0.451184 9.35355 0.646447C9.54882 0.841709 9.54882 1.15829 9.35355 1.35355L5.35355 5.35355C5.15829 5.54882 4.84171 5.54882 4.64645 5.35355L0.646447 1.35355C0.451184 1.15829 0.451184 0.841709 0.646447 0.646447Z" />
</symbol><symbol viewBox="0 0 15 16" fill="none" id="icon-arrow-drop-orange">
<path d="M15 8C15 12.1421 11.6421 15.5 7.5 15.5C3.35786 15.5 0 12.1421 0 8C0 3.85786 3.35786 0.5 7.5 0.5C11.6421 0.5 15 3.85786 15 8Z" fill="#F2994A" />
<path fill-rule="evenodd" clip-rule="evenodd" d="M2.29289 5.79289C2.68342 5.40237 3.31658 5.40237 3.70711 5.79289L7.5 9.58579L11.2929 5.79289C11.6834 5.40237 12.3166 5.40237 12.7071 5.79289C13.0976 6.18342 13.0976 6.81658 12.7071 7.20711L8.20711 11.7071C8.01957 11.8946 7.76522 12 7.5 12C7.23478 12 6.98043 11.8946 6.79289 11.7071L2.29289 7.20711C1.90237 6.81658 1.90237 6.18342 2.29289 5.79289Z" fill="white" />
</symbol><symbol viewBox="0 0 7 12" id="icon-arrow-next">
<path fill-rule="evenodd" clip-rule="evenodd" d="M0.469671 0.46967C0.762564 0.176777 1.23744 0.176777 1.53033 0.46967L6.53033 5.46967C6.67098 5.61032 6.75 5.80109 6.75 6C6.75 6.19891 6.67098 6.38968 6.53033 6.53033L1.53033 11.5303C1.23744 11.8232 0.762563 11.8232 0.46967 11.5303C0.176777 11.2374 0.176777 10.7626 0.46967 10.4697L4.93934 6L0.469671 1.53033C0.176778 1.23744 0.176778 0.762563 0.469671 0.46967Z" />
</symbol><symbol viewBox="0 0 15 16" fill="none" id="icon-arrow-next-green">
<path d="M15 8C15 12.1421 11.6421 15.5 7.5 15.5C3.35786 15.5 0 12.1421 0 8C0 3.85786 3.35786 0.5 7.5 0.5C11.6421 0.5 15 3.85786 15 8Z" fill="#2AA7A4" />
<path fill-rule="evenodd" clip-rule="evenodd" d="M5.29289 12.7071C4.90237 12.3166 4.90237 11.6834 5.29289 11.2929L8.58579 8L5.29289 4.70711C4.90237 4.31658 4.90237 3.68342 5.29289 3.29289C5.68342 2.90237 6.31658 2.90237 6.70711 3.29289L10.7071 7.29289C10.8946 7.48043 11 7.73478 11 8C11 8.26522 10.8946 8.51957 10.7071 8.70711L6.70711 12.7071C6.31658 13.0976 5.68342 13.0976 5.29289 12.7071Z" fill="white" />
</symbol><symbol viewBox="0 0 15 16" fill="none" id="icon-arrow-next-purple">
<path d="M15 8C15 12.1421 11.6421 15.5 7.5 15.5C3.35786 15.5 0 12.1421 0 8C0 3.85786 3.35786 0.5 7.5 0.5C11.6421 0.5 15 3.85786 15 8Z" fill="#8A5B8F" />
<path fill-rule="evenodd" clip-rule="evenodd" d="M5.29289 12.7071C4.90237 12.3166 4.90237 11.6834 5.29289 11.2929L8.58579 8L5.29289 4.70711C4.90237 4.31658 4.90237 3.68342 5.29289 3.29289C5.68342 2.90237 6.31658 2.90237 6.70711 3.29289L10.7071 7.29289C10.8946 7.48043 11 7.73478 11 8C11 8.26522 10.8946 8.51957 10.7071 8.70711L6.70711 12.7071C6.31658 13.0976 5.68342 13.0976 5.29289 12.7071Z" fill="white" />
</symbol><symbol viewBox="0 0 19 19" id="icon-calendar">
<path fill-rule="evenodd" clip-rule="evenodd" d="M1 6.25C1 4.04086 2.79086 2.25 5 2.25H14C16.2091 2.25 18 4.04086 18 6.25V14.5C18 16.7091 16.2091 18.5 14 18.5H5C2.79086 18.5 1 16.7091 1 14.5V6.25ZM5 4.25C3.89543 4.25 3 5.14543 3 6.25V14.5C3 15.6046 3.89543 16.5 5 16.5H14C15.1046 16.5 16 15.6046 16 14.5V6.25C16 5.14543 15.1046 4.25 14 4.25H5Z" />
<path fill-rule="evenodd" clip-rule="evenodd" d="M5.75 0.75C6.30228 0.75 6.75 1.19772 6.75 1.75V3.25C6.75 3.80228 6.30228 4.25 5.75 4.25C5.19772 4.25 4.75 3.80228 4.75 3.25V1.75C4.75 1.19772 5.19772 0.75 5.75 0.75Z" />
<path fill-rule="evenodd" clip-rule="evenodd" d="M13.25 0.75C13.8023 0.75 14.25 1.19772 14.25 1.75V3.25C14.25 3.80228 13.8023 4.25 13.25 4.25C12.6977 4.25 12.25 3.80228 12.25 3.25V1.75C12.25 1.19772 12.6977 0.75 13.25 0.75Z" />
<path fill-rule="evenodd" clip-rule="evenodd" d="M1 7C1 6.44772 1.44772 6 2 6H17C17.5523 6 18 6.44772 18 7C18 7.55228 17.5523 8 17 8H2C1.44772 8 1 7.55228 1 7Z" />
<path fill-rule="evenodd" clip-rule="evenodd" d="M4.375 10.75C4.375 10.1977 4.82272 9.75 5.375 9.75H6.125C6.67728 9.75 7.125 10.1977 7.125 10.75C7.125 11.3023 6.67728 11.75 6.125 11.75H5.375C4.82272 11.75 4.375 11.3023 4.375 10.75Z" />
<path fill-rule="evenodd" clip-rule="evenodd" d="M8.125 10.75C8.125 10.1977 8.57272 9.75 9.125 9.75H9.875C10.4273 9.75 10.875 10.1977 10.875 10.75C10.875 11.3023 10.4273 11.75 9.875 11.75H9.125C8.57272 11.75 8.125 11.3023 8.125 10.75Z" />
<path fill-rule="evenodd" clip-rule="evenodd" d="M11.875 10.75C11.875 10.1977 12.3227 9.75 12.875 9.75H13.625C14.1773 9.75 14.625 10.1977 14.625 10.75C14.625 11.3023 14.1773 11.75 13.625 11.75H12.875C12.3227 11.75 11.875 11.3023 11.875 10.75Z" />
<path fill-rule="evenodd" clip-rule="evenodd" d="M4.375 13.75C4.375 13.1977 4.82272 12.75 5.375 12.75H6.125C6.67728 12.75 7.125 13.1977 7.125 13.75C7.125 14.3023 6.67728 14.75 6.125 14.75H5.375C4.82272 14.75 4.375 14.3023 4.375 13.75Z" />
<path fill-rule="evenodd" clip-rule="evenodd" d="M8.125 13.75C8.125 13.1977 8.57272 12.75 9.125 12.75H9.875C10.4273 12.75 10.875 13.1977 10.875 13.75C10.875 14.3023 10.4273 14.75 9.875 14.75H9.125C8.57272 14.75 8.125 14.3023 8.125 13.75Z" />
<path fill-rule="evenodd" clip-rule="evenodd" d="M11.875 13.75C11.875 13.1977 12.3227 12.75 12.875 12.75H13.625C14.1773 12.75 14.625 13.1977 14.625 13.75C14.625 14.3023 14.1773 14.75 13.625 14.75H12.875C12.3227 14.75 11.875 14.3023 11.875 13.75Z" />
</symbol><symbol viewBox="0 0 40 40" fill="none" id="icon-call">
<path d="M40 20C40 31.0457 31.0457 40 20 40C8.9543 40 0 31.0457 0 20C0 8.9543 8.9543 0 20 0C31.0457 0 40 8.9543 40 20Z" fill="#2AA7A4" />
<path fill-rule="evenodd" clip-rule="evenodd" d="M11.4133 21.9973C10.3746 22.5907 9.78765 23.7445 9.91976 24.9335L10.2445 27.8559C10.3962 29.2213 11.5377 30.4622 13.1264 30.276C15.492 29.9989 19.8185 28.8114 24.4056 24.2244C28.9926 19.6373 30.1807 15.3103 30.4582 12.9444C30.6446 11.3555 29.4037 10.2137 28.0381 10.0619L25.116 9.73724C23.927 9.60513 22.7732 10.192 22.1798 11.2308L21.0031 13.2905C20.3321 14.4651 20.5302 15.9434 21.4867 16.8999L21.9119 17.3251C22.1654 17.5786 22.159 17.812 22.0997 17.9331C21.8268 18.4902 21.32 19.3096 20.406 20.2235C19.4921 21.1375 18.6727 21.6443 18.1156 21.9172C17.9945 21.9765 17.7611 21.9828 17.5077 21.7294L17.0824 21.3042C16.1259 20.3477 14.6476 20.1496 13.473 20.8206L11.4133 21.9973ZM11.9075 24.7126C11.8635 24.3163 12.0591 23.9317 12.4054 23.7339L14.4651 22.5572C14.8566 22.3335 15.3494 22.3996 15.6682 22.7184L16.0934 23.1436C16.7857 23.8359 17.9154 24.2423 18.9954 23.7133C19.7391 23.349 20.7417 22.7163 21.8203 21.6377C22.8988 20.5592 23.5315 19.5566 23.8958 18.8129C24.4248 17.7329 24.0184 16.6032 23.3261 15.9109L22.9009 15.4857C22.5821 15.1669 22.5161 14.6741 22.7397 14.2826L23.9164 12.2229C24.1142 11.8766 24.4988 11.681 24.8951 11.725L27.8172 12.0497C28.0528 12.0759 28.2337 12.1797 28.3417 12.3C28.4423 12.4122 28.4911 12.5472 28.4719 12.7114C28.2411 14.6783 27.2278 18.5738 22.9914 22.8101C18.755 27.0466 14.8601 28.0593 12.8936 28.2896C12.7296 28.3088 12.5946 28.2601 12.4825 28.1594C12.3622 28.0515 12.2584 27.8707 12.2322 27.6351L11.9075 24.7126Z" fill="white" />
</symbol><symbol viewBox="0 0 25 24" id="icon-camera">
<path fill-rule="evenodd" clip-rule="evenodd" d="M9.90234 5.75098C9.76427 5.75098 9.65234 5.86291 9.65234 6.00098C9.65234 6.96747 8.86884 7.75098 7.90234 7.75098H5.40234C4.71199 7.75098 4.15234 8.31062 4.15234 9.00098V17.001C4.15234 17.6913 4.71199 18.251 5.40234 18.251H19.4023C20.0927 18.251 20.6523 17.6913 20.6523 17.001V9.00098C20.6523 8.31062 20.0927 7.75098 19.4023 7.75098H16.9023C15.9358 7.75098 15.1523 6.96747 15.1523 6.00098C15.1523 5.86291 15.0404 5.75098 14.9023 5.75098H9.90234ZM8.15234 6.00098C8.15234 5.03448 8.93585 4.25098 9.90234 4.25098H14.9023C15.8688 4.25098 16.6523 5.03448 16.6523 6.00098C16.6523 6.13905 16.7643 6.25098 16.9023 6.25098H19.4023C20.9211 6.25098 22.1523 7.48219 22.1523 9.00098V17.001C22.1523 18.5198 20.9211 19.751 19.4023 19.751H5.40234C3.88356 19.751 2.65234 18.5198 2.65234 17.001V9.00098C2.65234 7.48219 3.88356 6.25098 5.40234 6.25098H7.90234C8.04041 6.25098 8.15234 6.13905 8.15234 6.00098ZM12.4023 10.751C11.1597 10.751 10.1523 11.7583 10.1523 13.001C10.1523 14.2436 11.1597 15.251 12.4023 15.251C13.645 15.251 14.6523 14.2436 14.6523 13.001C14.6523 11.7583 13.645 10.751 12.4023 10.751ZM8.65234 13.001C8.65234 10.9299 10.3313 9.25098 12.4023 9.25098C14.4734 9.25098 16.1523 10.9299 16.1523 13.001C16.1523 15.072 14.4734 16.751 12.4023 16.751C10.3313 16.751 8.65234 15.072 8.65234 13.001Z" />
</symbol><symbol viewBox="0 0 27 20" id="icon-eye">
<path fill-rule="evenodd" clip-rule="evenodd" d="M6.76855 4.61387C4.77626 6.10179 3.1871 7.89317 2.24473 9.07572L2.24047 9.08106L2.24045 9.08105C2.08195 9.27718 2 9.51266 2 9.75C2 9.98734 2.08195 10.2228 2.24045 10.419L2.24474 10.4243L2.24473 10.4243C3.1871 11.6068 4.77626 13.3982 6.76855 14.8861C8.77062 16.3813 11.0854 17.5 13.5002 17.5C15.9149 17.5 18.2298 16.3813 20.2318 14.8861C22.2241 13.3983 23.8132 11.607 24.7556 10.4244C25.0811 10.0158 25.0819 9.48634 24.7555 9.0755C23.8131 7.89295 22.224 6.1017 20.2318 4.61387C18.2298 3.11866 15.9149 2 13.5002 2C11.0854 2 8.77062 3.11866 6.76855 4.61387ZM5.5718 3.01144C7.7436 1.38947 10.4768 0 13.5002 0C16.5236 0 19.2568 1.38947 21.4286 3.01144C23.6102 4.64071 25.3207 6.57558 26.3198 7.82928L26.3204 7.83004C27.2263 8.96912 27.2269 10.5319 26.3199 11.6706L26.3198 11.6707C25.3207 12.9244 23.6102 14.8593 21.4286 16.4886C19.2568 18.1105 16.5236 19.5 13.5002 19.5C10.4768 19.5 7.7436 18.1105 5.5718 16.4886C3.39166 14.8604 1.68194 12.9269 0.682582 11.6732C0.242776 11.1276 0 10.4512 0 9.75C0 9.04879 0.242763 8.37241 0.682548 7.82687C1.6819 6.5731 3.39163 4.63967 5.5718 3.01144ZM13.5002 7C11.8604 7 10.5991 8.26808 10.5991 9.75C10.5991 11.2319 11.8604 12.5 13.5002 12.5C15.14 12.5 16.4013 11.2319 16.4013 9.75C16.4013 8.26808 15.14 7 13.5002 7ZM8.59909 9.75C8.59909 7.08978 10.831 5 13.5002 5C16.1694 5 18.4013 7.08978 18.4013 9.75C18.4013 12.4102 16.1694 14.5 13.5002 14.5C10.831 14.5 8.59909 12.4102 8.59909 9.75Z" />
</symbol><symbol viewBox="0 0 21 23" id="icon-glass">
<path fill-rule="evenodd" clip-rule="evenodd" d="M10.1074 2C5.63605 2 2 5.6507 2 10.1681C2 14.6855 5.63605 18.3362 10.1074 18.3362C14.5787 18.3362 18.2147 14.6855 18.2147 10.1681C18.2147 5.6507 14.5787 2 10.1074 2ZM0 10.1681C0 4.55869 4.51897 0 10.1074 0C15.6958 0 20.2147 4.55869 20.2147 10.1681C20.2147 13.0906 18.9881 15.7279 17.0227 17.5839L20.7095 21.2952C21.0987 21.6871 21.0966 22.3202 20.7048 22.7095C20.3129 23.0987 19.6798 23.0966 19.2905 22.7048L15.4272 18.8157C13.8827 19.7794 12.0603 20.3362 10.1074 20.3362C4.51897 20.3362 0 15.7775 0 10.1681Z" />
</symbol><symbol viewBox="0 0 40 40" fill="none" id="icon-mail">
<path d="M40 20C40 31.0457 31.0457 40 20 40C8.9543 40 0 31.0457 0 20C0 8.9543 8.9543 0 20 0C31.0457 0 40 8.9543 40 20Z" fill="#2AA7A4" />
<path d="M10 15.3335C10 14.2289 10.8954 13.3335 12 13.3335H27.7647C28.8693 13.3335 29.7647 14.2289 29.7647 15.3335V25.3335C29.7647 26.4381 28.8693 27.3335 27.7647 27.3335H12C10.8954 27.3335 10 26.4381 10 25.3335V15.3335Z" fill="#2AA7A4" />
<path fill-rule="evenodd" clip-rule="evenodd" d="M9 15.3335C9 13.6766 10.3431 12.3335 12 12.3335H27.7647C29.4216 12.3335 30.7647 13.6766 30.7647 15.3335V25.3335C30.7647 26.9904 29.4216 28.3335 27.7647 28.3335H12C10.3431 28.3335 9 26.9903 9 25.3335V15.3335ZM12 14.3335C11.4477 14.3335 11 14.7812 11 15.3335V25.3335C11 25.8858 11.4477 26.3335 12 26.3335H27.7647C28.317 26.3335 28.7647 25.8858 28.7647 25.3335V15.3335C28.7647 14.7812 28.317 14.3335 27.7647 14.3335H12Z" fill="white" />
<path d="M11.4215 14.6364C10.9173 14.1742 11.2443 13.3335 11.9283 13.3335H27.8368C28.5208 13.3335 28.8478 14.1742 28.3436 14.6364L21.9097 20.5341C20.7627 21.5855 19.0023 21.5855 17.8553 20.5341L11.4215 14.6364Z" fill="#2AA7A4" />
<path fill-rule="evenodd" clip-rule="evenodd" d="M10.7458 15.3735C9.5693 14.295 10.3323 12.3335 11.9283 12.3335H27.8368C29.4328 12.3335 30.1959 14.295 29.0194 15.3735L22.5855 21.2712C21.0562 22.6731 18.709 22.6731 17.1797 21.2712L10.7458 15.3735ZM12.571 14.3335L18.5311 19.7969C19.2958 20.4978 20.4694 20.4978 21.234 19.7969L27.1941 14.3335H12.571Z" fill="white" />
</symbol><symbol viewBox="0 0 18 22" id="icon-marker">
<path fill-rule="evenodd" clip-rule="evenodd" d="M9 2.83337C5.41015 2.83337 2.5 5.74352 2.5 9.33337C2.5 11.8481 4.14074 14.3126 5.97595 16.2498C6.87311 17.1968 7.77367 17.9726 8.45105 18.512C8.65778 18.6766 8.84297 18.8186 9 18.9362C9.15703 18.8186 9.34222 18.6766 9.54895 18.512C10.2263 17.9726 11.1269 17.1968 12.024 16.2498C13.8593 14.3126 15.5 11.8481 15.5 9.33337C15.5 5.74352 12.5899 2.83337 9 2.83337ZM9 20.1667C8.4453 20.9988 8.44505 20.9986 8.44478 20.9984L8.44217 20.9967L8.43632 20.9927L8.41662 20.9794C8.39999 20.9681 8.37643 20.952 8.3464 20.9312C8.28636 20.8896 8.20041 20.8293 8.09224 20.7511C7.87601 20.595 7.57042 20.3674 7.2052 20.0766C6.47633 19.4962 5.50189 18.6574 4.52405 17.6253C2.60926 15.6041 0.5 12.652 0.5 9.33337C0.5 4.63895 4.30558 0.833374 9 0.833374C13.6944 0.833374 17.5 4.63895 17.5 9.33337C17.5 12.652 15.3907 15.6041 13.476 17.6253C12.4981 18.6574 11.5237 19.4962 10.7948 20.0766C10.4296 20.3674 10.124 20.595 9.90776 20.7511C9.79959 20.8293 9.71364 20.8896 9.6536 20.9312C9.62357 20.952 9.60001 20.9681 9.58338 20.9794L9.56368 20.9927L9.55783 20.9967L9.55592 20.9979C9.55564 20.9981 9.5547 20.9988 9 20.1667ZM9 20.1667L9.5547 20.9988C9.2188 21.2227 8.78067 21.2223 8.44478 20.9984L9 20.1667Z" />
<path fill-rule="evenodd" clip-rule="evenodd" d="M5.5 9.33337C5.5 7.40038 7.067 5.83337 9 5.83337C10.933 5.83337 12.5 7.40038 12.5 9.33337C12.5 11.2664 10.933 12.8334 9 12.8334C7.067 12.8334 5.5 11.2664 5.5 9.33337ZM9 7.83337C8.17157 7.83337 7.5 8.50495 7.5 9.33337C7.5 10.1618 8.17157 10.8334 9 10.8334C9.82843 10.8334 10.5 10.1618 10.5 9.33337C10.5 8.50495 9.82843 7.83337 9 7.83337Z" />
</symbol><symbol viewBox="0 0 17 13" id="icon-slider-next">
<path fill-rule="evenodd" clip-rule="evenodd" d="M9.44377 0.227891C9.15542 0.525255 9.16272 1.00007 9.46009 1.28843L13.6707 5.37143L0.750056 5.37143C0.335842 5.37143 5.53131e-05 5.70722 5.53131e-05 6.12143C5.53131e-05 6.53564 0.335843 6.87143 0.750056 6.87143L13.6707 6.87143L9.46009 10.9544C9.16273 11.2428 9.15542 11.7176 9.44378 12.015C9.73213 12.3123 10.2069 12.3196 10.5043 12.0313L16.0436 6.65985C16.1893 6.5186 16.2715 6.32434 16.2715 6.12143C16.2715 5.91851 16.1893 5.72426 16.0436 5.583L10.5043 0.211575C10.2069 -0.0767778 9.73213 -0.0694729 9.44377 0.227891Z" />
</symbol><symbol viewBox="0 0 17 13" id="icon-slider-prev">
<path fill-rule="evenodd" clip-rule="evenodd" d="M6.82771 12.015C7.11606 11.7177 7.10876 11.2428 6.8114 10.9545L2.6008 6.87149L15.5214 6.87149C15.9356 6.87149 16.2714 6.5357 16.2714 6.12149C16.2714 5.70728 15.9356 5.37149 15.5214 5.37149L2.6008 5.37149L6.81139 1.28849C7.10876 1.00013 7.11606 0.525317 6.82771 0.227953C6.53936 -0.0694117 6.06454 -0.0767159 5.76718 0.211637L0.227891 5.58307C0.0822195 5.72432 4.93287e-07 5.91858 5.35152e-07 6.12149C5.77018e-07 6.32441 0.0822195 6.51866 0.227891 6.65992L5.76718 12.0313C6.06454 12.3197 6.53936 12.3124 6.82771 12.015Z" />
</symbol><symbol viewBox="0 0 40 40" fill="none" id="icon-step-1">
<path d="M27.7769 34.6685C28.0188 35.1562 28.2364 35.5907 28.4494 36.0274C28.7689 36.682 28.6288 37.1257 27.9817 37.457C26.764 38.0814 25.5439 38.6989 24.3215 39.3117C23.6745 39.6361 23.1987 39.4647 22.8688 38.8043C22.2426 37.5532 21.6186 36.302 20.9704 35.0033C20.3673 35.2976 19.7793 35.5849 19.1912 35.8733C18.8544 36.0379 18.5245 36.2186 18.1807 36.3657C17.5394 36.6403 16.9051 36.2209 16.8819 35.5154C16.8738 35.2559 16.8808 34.9952 16.8808 34.6674C16.7002 34.6674 16.5335 34.6674 16.368 34.6674C12.4982 34.6674 8.62619 34.6025 4.75879 34.6917C2.40431 34.7461 -0.0138312 32.9956 5.95615e-05 29.928C0.0324712 22.4557 0.0104772 14.9823 0.0104772 7.50998C0.0104772 6.6133 0.0347858 5.71663 0.00584683 4.82112C-0.0856004 1.98629 2.06052 -0.0410739 4.79467 0.000631787C8.41783 0.0550809 12.0433 0.0145331 15.6676 0.0145331C22.1801 0.0145331 28.6925 0.0191672 35.2049 0.0110578C36.4018 0.0098993 37.4876 0.292572 38.4067 1.09077C39.489 2.03031 39.9833 3.23514 39.9833 4.65314C39.9845 13.1229 39.9926 21.5938 39.9787 30.0635C39.9752 32.4442 38.5155 34.1819 36.2236 34.6187C35.9851 34.6639 35.7362 34.6674 35.492 34.6674C33.0947 34.6708 30.6974 34.6697 28.3012 34.6697C28.145 34.6685 27.9898 34.6685 27.7769 34.6685ZM16.9213 32.8717C16.9213 32.6261 16.9213 32.4396 16.9213 32.2542C16.9213 28.7857 16.9213 25.316 16.9213 21.8475C16.9213 21.4397 16.9826 21.0585 17.404 20.8651C17.8161 20.6762 18.1691 20.7886 18.5245 21.0574C22.1291 23.781 25.7419 26.4942 29.35 29.212C30.026 29.7217 29.9612 30.4782 29.2099 30.8675C28.814 31.0725 28.4089 31.2625 28.0095 31.4618C27.5245 31.7028 27.0418 31.9461 26.5788 32.1777C26.676 32.7466 26.9677 32.8925 27.4933 32.8867C30.092 32.8555 32.6907 32.8752 35.2906 32.8694C35.5776 32.8694 35.8728 32.8659 36.1483 32.7975C37.4332 32.4778 38.1868 31.434 38.1879 29.9963C38.1903 23.7231 38.1891 17.451 38.1879 11.1778C38.1879 11.0376 38.1764 10.8963 38.1694 10.7433C26.0382 10.7433 13.9359 10.7433 1.80238 10.7433C1.80238 10.9194 1.80238 11.0619 1.80238 11.2033C1.80238 17.4475 1.81974 23.6906 1.7908 29.9349C1.7827 31.6923 3.03171 32.9134 4.72522 32.8891C8.60883 32.8335 12.4936 32.8717 16.3772 32.8717C16.5358 32.8717 16.6921 32.8717 16.9213 32.8717ZM38.1717 8.89438C38.1717 7.3223 38.2042 5.79309 38.159 4.26504C38.1347 3.4483 37.7226 2.78333 37.0443 2.30024C36.4886 1.90404 35.8613 1.80093 35.1991 1.80093C25.0624 1.80209 14.9256 1.80209 4.78888 1.80209C4.67313 1.80209 4.55737 1.80093 4.44277 1.80788C2.96573 1.89708 1.88225 2.89802 1.82437 4.3554C1.76534 5.84175 1.81511 7.33157 1.81859 8.82023C1.81859 8.84224 1.85215 8.86426 1.87762 8.89438C13.9544 8.89438 26.0394 8.89438 38.1717 8.89438ZM27.1622 29.87C24.3134 27.7326 21.5307 25.6439 18.712 23.5285C18.712 27.0908 18.712 30.5651 18.712 34.1032C19.3996 33.7649 20.0409 33.4463 20.6845 33.1347C21.4543 32.7605 21.8664 32.9018 22.2576 33.6722C22.8769 34.8921 23.4939 36.112 24.1305 37.3666C24.9142 36.9797 25.6782 36.602 26.4572 36.2174C25.8044 34.9072 25.1793 33.6595 24.5588 32.4083C24.2093 31.7028 24.3516 31.2892 25.0589 30.9312C25.7372 30.5883 26.4167 30.2454 27.1622 29.87Z" fill="#2AA7A4" />
<path d="M25.3884 18.6697C25.8178 18.694 26.1095 18.8805 26.2554 19.2814C26.3977 19.6718 26.3086 20.0494 25.9833 20.2406C25.3432 20.6159 24.6695 20.9438 23.9819 21.223C23.5802 21.3863 23.1797 21.1407 22.9968 20.7434C22.8325 20.3889 22.9042 19.8861 23.2388 19.6938C23.8708 19.33 24.5387 19.0288 25.1939 18.7056C25.2552 18.6766 25.3328 18.6801 25.3884 18.6697Z" fill="#F39314" />
<path d="M16.7247 17.5576C16.6969 18.1334 16.4989 18.4137 16.0938 18.5516C15.6759 18.6941 15.3113 18.5597 15.1099 18.2191C14.7533 17.6132 14.4454 16.9737 14.1665 16.3261C14.0044 15.9496 14.1884 15.6125 14.5045 15.3831C14.8436 15.1364 15.265 15.0981 15.5428 15.3912C16.1586 16.0365 16.4075 16.895 16.7247 17.5576Z" fill="#F39314" />
<path d="M10.5381 26.4894C10.7036 26.2566 10.8205 25.9449 11.0439 25.8059C11.5938 25.4665 12.183 25.1861 12.7745 24.9208C13.241 24.7123 13.7272 24.9266 13.9332 25.3738C14.1335 25.8071 13.9946 26.2774 13.5501 26.523C13.0211 26.8161 12.4828 27.0965 11.9295 27.3398C11.287 27.6247 10.64 27.2158 10.5381 26.4894Z" fill="#F39314" />
<path d="M13.677 21.0876C13.6793 21.7595 13.1063 22.1951 12.5507 22.0213C11.9765 21.8406 11.4058 21.6471 10.8421 21.4398C10.3189 21.2474 10.1117 20.8397 10.2633 20.3589C10.4242 19.8491 10.8433 19.5966 11.3711 19.7507C11.9615 19.9221 12.5426 20.1318 13.119 20.345C13.4975 20.484 13.6654 20.7887 13.677 21.0876Z" fill="#F39314" />
<path d="M19.4786 17.114C19.6766 16.5753 19.9093 15.8361 20.223 15.1329C20.3815 14.7761 20.9267 14.6858 21.2972 14.8549C21.656 15.0183 21.9072 15.4666 21.7914 15.8616C21.6097 16.4803 21.399 17.0943 21.1594 17.6932C20.9974 18.0987 20.5366 18.3223 20.179 18.2365C19.753 18.1346 19.4717 17.7697 19.4786 17.114Z" fill="#F39314" />
<path d="M14.2062 4.47595C14.7097 4.46784 15.1311 4.871 15.1299 5.35872C15.1287 5.83254 14.7271 6.23686 14.249 6.24728C13.7501 6.25887 13.3311 5.85224 13.3311 5.35756C13.3299 4.87679 13.7212 4.48406 14.2062 4.47595Z" fill="#F39314" />
<path d="M8.90434 5.34821C8.90781 4.85354 9.28286 4.4805 9.77829 4.47587C10.2818 4.47124 10.6986 4.87786 10.6905 5.36675C10.6835 5.83941 10.2772 6.24257 9.80145 6.24836C9.29675 6.25416 8.89971 5.85679 8.90434 5.34821Z" fill="#F39314" />
<path d="M5.36124 4.47587C5.85899 4.48051 6.22941 4.84891 6.23519 5.34474C6.24098 5.85448 5.84741 6.25184 5.34156 6.24721C4.83455 6.24142 4.45718 5.84174 4.47107 5.32621C4.48497 4.82806 4.8577 4.47124 5.36124 4.47587Z" fill="#F39314" />
</symbol><symbol viewBox="0 0 40 41" fill="none" id="icon-step-2">
<path d="M1.87469 40.0335C1.71033 39.9649 1.54108 39.9042 1.38162 39.8259C0.466898 39.3726 0.00220093 38.6334 0.00122262 37.6092C0.000244309 34.2078 0.000244846 30.8065 0.000244846 27.4051C0.000244846 19.0906 -0.000734001 10.776 0.00122262 2.46252C0.00122262 1.2269 0.69778 0.323192 1.86099 0.0510021C2.04785 0.00694262 2.24742 0.00204713 2.44113 0.00204713C11.8535 8.89297e-05 21.2658 -0.000891125 30.6781 0.00106707C32.1133 0.00106707 33.1151 0.996811 33.117 2.42336C33.1209 5.1991 33.119 7.97485 33.117 10.7506C33.117 11.2372 32.8725 11.5466 32.4498 11.6239C32.1299 11.6827 31.7572 11.4869 31.631 11.1599C31.5723 11.0081 31.5605 10.8299 31.5605 10.6644C31.5557 9.1527 31.5576 7.64097 31.5576 6.12925C31.5576 4.96901 31.5586 3.80976 31.5576 2.64953C31.5566 1.84863 31.2759 1.56371 30.4815 1.56273C27.0055 1.56175 23.5296 1.56273 20.0537 1.56273C14.2738 1.56273 8.49296 1.56273 2.7131 1.56273C1.81305 1.56273 1.56163 1.81827 1.56163 2.73079C1.56163 14.2509 1.56163 25.7709 1.56163 37.291C1.56163 38.2251 1.80718 38.4699 2.74147 38.4699C11.9591 38.4699 21.1758 38.4699 30.3934 38.4699C31.3052 38.4699 31.5586 38.2192 31.5586 37.3155C31.5586 35.5433 31.5547 33.7712 31.5615 31.999C31.5635 31.3675 32.0947 30.9797 32.6328 31.2089C32.9478 31.343 33.119 31.5927 33.119 31.9422C33.119 33.9229 33.1307 35.9036 33.1082 37.8843C33.0984 38.7538 32.44 39.5753 31.5958 39.8827C31.4764 39.9258 31.3629 39.9826 31.2465 40.0335C21.4546 40.0335 11.6646 40.0335 1.87469 40.0335Z" fill="#2AA7A4" />
<path d="M39.9938 13.5263C39.582 14.3742 39.2171 15.2495 38.7494 16.0661C35.8106 21.1995 32.8522 26.3212 29.8879 31.4389C29.7304 31.7111 29.4975 31.9628 29.2451 32.1527C27.7278 33.2943 26.1928 34.4134 24.6666 35.5443C24.3428 35.7842 24.0082 35.9281 23.6257 35.701C23.3264 35.5237 23.2148 35.2398 23.252 34.9001C23.4575 33.0261 23.6844 31.154 23.8635 29.2771C23.9163 28.7219 24.1256 28.2588 24.3947 27.7938C27.5037 22.4136 30.6099 17.0315 33.7101 11.6465C34.2414 10.7242 34.9516 10.0564 36.0209 9.83024C37.8406 9.44545 39.5497 10.5744 39.9224 12.4092C39.9351 12.4709 39.9694 12.5286 39.9938 12.5884C39.9938 12.9007 39.9938 13.214 39.9938 13.5263ZM28.7599 30.2454C31.4004 25.6662 34.0095 21.1418 36.6363 16.588C35.6531 16.0201 34.6806 15.4571 33.6769 14.8775C31.0433 19.442 28.4302 23.9733 25.7986 28.5359C26.7964 29.1116 27.7581 29.6678 28.7599 30.2454ZM37.4356 15.2202C37.7369 14.6768 38.0362 14.2029 38.271 13.6987C38.633 12.9193 38.318 12.0029 37.5803 11.5672C36.8593 11.1412 35.8908 11.2881 35.4026 11.9559C35.0534 12.4327 34.7814 12.9663 34.4586 13.4999C35.4643 14.0815 36.4279 14.6386 37.4356 15.2202ZM25.014 33.3198C25.9228 32.6491 26.7485 32.0391 27.6035 31.4076C26.8444 30.97 26.14 30.5636 25.373 30.1211C25.2527 31.1922 25.1392 32.2036 25.014 33.3198Z" fill="#F39314" />
<path d="M9.37305 11.3899C9.37794 7.42261 12.6064 4.21508 16.5852 4.22193C20.5512 4.22879 23.7523 7.45786 23.7444 11.4408C23.7366 15.4111 20.5131 18.6147 16.5333 18.6078C12.5702 18.601 9.36816 15.3739 9.37305 11.3899ZM18.8314 12.7861C19.2628 13.0759 19.6786 13.3383 20.0758 13.6262C20.472 13.9131 20.8486 14.2254 21.2165 14.5123C22.862 12.4003 22.3914 8.8707 20.0807 7.0437C17.6398 5.11291 14.1501 5.48008 12.219 7.85048C10.3338 10.1621 10.7985 13.2806 12.0859 14.6777C12.6523 13.8563 13.4105 13.259 14.2969 12.8253C13.7578 11.8227 13.704 11.5867 13.751 10.449C13.797 9.33283 14.5581 8.31065 15.6176 7.94545C16.7329 7.56066 17.9284 7.91314 18.6993 8.75712C19.4966 9.62852 19.661 11.6602 18.8314 12.7861ZM13.2002 15.8664C14.9905 17.3986 18.173 17.3977 19.9183 15.8634C19.1464 14.5955 18.0037 13.9277 16.5382 13.9356C15.0903 13.9424 13.9594 14.6072 13.2002 15.8664ZM17.809 10.824C17.809 10.8005 17.811 10.7349 17.809 10.6703C17.7836 9.89777 17.2729 9.3671 16.5558 9.36808C15.8407 9.36906 15.3378 9.89973 15.3094 10.6781C15.2909 11.1833 15.328 11.6758 15.7487 12.0312C16.1361 12.3582 16.5803 12.4473 17.0528 12.2329C17.6378 11.9676 17.8266 11.4712 17.809 10.824Z" fill="#F39314" />
<path d="M15.2317 22.675C13.4365 22.675 11.6403 22.6847 9.84612 22.6632C9.59763 22.6603 9.27576 22.5643 9.12413 22.392C8.97444 22.2216 8.89422 21.8594 8.97347 21.6547C9.05956 21.4325 9.35207 21.2758 9.58002 21.1299C9.67394 21.0702 9.83438 21.1123 9.96449 21.1123C13.4776 21.1123 16.9897 21.1123 20.5029 21.1123C20.5938 21.1123 20.6848 21.1094 20.7758 21.1143C21.2415 21.1387 21.5682 21.4736 21.5575 21.9132C21.5477 22.3352 21.2258 22.6642 20.7748 22.6701C19.9423 22.6818 19.1097 22.674 18.2772 22.674C17.2617 22.675 16.2462 22.675 15.2317 22.675Z" fill="#2AA7A4" />
<path d="M15.2165 27.0537C13.3949 27.0537 11.5733 27.0556 9.75268 27.0517C9.31244 27.0507 8.99645 26.805 8.92014 26.431C8.84481 26.0638 9.04341 25.6859 9.40342 25.5508C9.52082 25.5067 9.65681 25.493 9.78497 25.493C13.4145 25.4901 17.045 25.4891 20.6745 25.492C21.2146 25.492 21.556 25.8014 21.558 26.2684C21.5599 26.7355 21.2165 27.0507 20.6824 27.0517C18.8588 27.0556 17.0382 27.0537 15.2165 27.0537Z" fill="#2AA7A4" />
<path d="M15.2309 31.432C13.4357 31.432 11.6395 31.4418 9.84532 31.4203C9.59683 31.4173 9.27496 31.3204 9.12332 31.1481C8.97364 30.9777 8.8944 30.6145 8.97364 30.4108C9.05973 30.1886 9.35225 30.0329 9.58117 29.888C9.67509 29.8283 9.83553 29.8704 9.96565 29.8704C13.4788 29.8704 16.9909 29.8704 20.504 29.8704C20.595 29.8704 20.686 29.8674 20.777 29.8723C21.227 29.8968 21.5488 30.2121 21.5576 30.6341C21.5665 31.0747 21.2417 31.4222 20.774 31.4291C19.9151 31.4418 19.0571 31.433 18.1981 31.434C17.2081 31.432 16.219 31.432 15.2309 31.432Z" fill="#2AA7A4" />
<path d="M18.638 35.8106C17.9747 35.8106 17.3114 35.8145 16.6491 35.8096C16.1179 35.8047 15.7755 35.4865 15.7813 35.0185C15.7872 34.5661 16.1237 34.2528 16.6325 34.2509C17.9845 34.245 19.3365 34.246 20.6885 34.2509C21.2197 34.2528 21.5622 34.573 21.5563 35.042C21.5504 35.5071 21.207 35.8076 20.666 35.8106C19.99 35.8145 19.314 35.8106 18.638 35.8106Z" fill="#2AA7A4" />
<path d="M7.12291 21.8919C7.12389 22.3178 6.79224 22.6624 6.37059 22.6732C5.946 22.6839 5.56055 22.3148 5.55957 21.8948C5.55859 21.4767 5.94307 21.1037 6.36668 21.1135C6.78833 21.1223 7.12193 21.4659 7.12291 21.8919Z" fill="#F39314" />
<path d="M7.12313 26.2576C7.12998 26.7002 6.78268 27.0546 6.34538 27.0517C5.93644 27.0487 5.57153 26.6933 5.55979 26.287C5.54903 25.8718 5.93057 25.49 6.35418 25.492C6.77485 25.4939 7.11628 25.8337 7.12313 26.2576Z" fill="#F39314" />
<path d="M7.12317 30.6353C7.131 31.0788 6.78468 31.4332 6.3464 31.4303C5.93648 31.4284 5.57157 31.0739 5.55983 30.6666C5.5481 30.2515 5.92866 29.8696 6.35324 29.8706C6.7749 29.8726 7.11535 30.2113 7.12317 30.6353Z" fill="#F39314" />
</symbol><symbol viewBox="0 0 40 41" fill="none" id="icon-step-3">
<path d="M0.000978546 17.2777C0.682879 16.6589 1.35598 16.0312 2.04766 15.4242C3.1434 14.4617 4.25283 13.5159 5.35346 12.5583C5.62642 12.3213 5.9209 12.1823 6.27995 12.3204C6.84151 12.5367 6.955 13.2153 6.48148 13.6578C5.90133 14.1993 5.2928 14.7114 4.69602 15.2352C3.83704 15.9891 2.97708 16.7431 2.08386 17.5254C3.07883 18.2509 4.04151 18.9539 5.00517 19.656C8.44501 22.1606 11.8868 24.6632 15.3208 27.1756C15.5761 27.3627 15.7454 27.392 16.0164 27.1874C17.1072 26.3649 18.2196 25.5709 19.3261 24.769C19.9043 24.3499 20.097 24.3509 20.685 24.7778C21.7905 25.5807 22.8941 26.3855 23.9996 27.1894C24.1043 27.2657 24.2119 27.3362 24.3293 27.4175C25.9915 26.2083 27.6194 24.9726 29.3041 23.8221C29.9537 23.3786 30.2609 22.9165 30.169 22.1194C30.0927 21.4507 30.1484 20.7663 30.1553 20.0887C30.1602 19.5767 30.4684 19.2408 30.9223 19.2349C31.3909 19.2281 31.7089 19.5708 31.7138 20.1044C31.7196 20.7232 31.7148 21.343 31.7148 22.0401C33.8172 20.5098 35.8531 19.0283 37.935 17.5136C37.8088 17.3932 37.7051 17.2884 37.5955 17.1905C36.8774 16.5492 36.1593 15.9069 35.4354 15.2724C35.3659 15.2107 35.2534 15.2 35.1624 15.1608C34.7153 14.9708 34.2712 14.7701 33.8182 14.5939C33.6841 14.542 33.4943 14.4979 33.3779 14.5518C31.205 15.5613 28.8247 14.4862 28.2524 12.1608C27.9032 10.741 28.3366 9.49754 29.4763 8.56639C30.6014 7.64797 31.8674 7.50404 33.2087 8.06116C33.3515 8.12089 33.4875 8.2002 33.6225 8.27853C34.1782 8.59772 34.5108 9.007 34.4649 9.72078C34.4032 10.6676 34.4414 11.6222 34.4541 12.573C34.4609 13.0958 34.8268 13.5139 35.3052 13.5952C35.7025 13.6627 36.1486 13.3974 36.3354 12.9803C36.357 12.9333 36.3863 12.8843 36.3902 12.8354C36.5203 10.9936 36.401 9.22143 34.8816 7.88981C33.4425 6.6287 31.7891 6.2958 30.0183 7.00566C28.2524 7.71357 27.2398 9.07456 27.097 10.9917C26.8955 13.696 28.8639 15.8658 31.6111 16.0244C32.1912 16.0577 32.4984 16.3191 32.5092 16.7871C32.5199 17.2561 32.1981 17.5851 31.6981 17.5881C30.2081 17.5959 28.8834 17.1063 27.7525 16.1536C24.0172 13.0087 25.0611 7.12414 29.6417 5.44592C33.2625 4.11822 37.2923 6.47596 37.8861 10.2955C38.0514 11.3608 38.1532 12.4525 37.8029 13.5022C37.6679 13.9056 37.3705 14.2541 37.121 14.6722C37.7863 15.2568 38.4985 15.8805 39.2098 16.5051C39.3468 16.6256 39.4808 16.7499 39.6227 16.8635C39.8966 17.0838 40.0003 17.3599 40.0003 17.7153C39.9934 24.8297 39.9954 31.944 39.9944 39.0573C39.9944 39.7515 39.7205 40.0257 39.0259 40.0257C26.3456 40.0267 13.6644 40.0247 0.984207 40.0335C0.522432 40.0335 0.216212 39.8641 0 39.4793C0.000978337 32.0791 0.000978546 24.6779 0.000978546 17.2777ZM3.24514 38.4327C14.4481 38.4327 25.562 38.4327 36.7385 38.4327C36.6016 38.3289 36.5203 38.2652 36.4372 38.2045C31.073 34.2988 25.7078 30.395 20.3494 26.4814C20.0882 26.2905 19.9219 26.2797 19.6538 26.4756C16.0633 29.1035 12.463 31.7188 8.86569 34.337C7.01468 35.6842 5.16562 37.0335 3.24514 38.4327ZM1.58588 19.1204C1.58588 25.3388 1.58588 31.4779 1.58588 37.6817C5.85143 34.5759 10.073 31.5024 14.3317 28.4015C10.0788 25.3036 5.85633 22.2301 1.58588 19.1204ZM38.4173 19.1155C34.1342 22.235 29.9127 25.3085 25.6657 28.4005C29.9352 31.5083 34.1557 34.5808 38.4173 37.6836C38.4173 31.4701 38.4173 25.33 38.4173 19.1155ZM32.8878 11.3716C32.8878 10.9036 32.8751 10.4355 32.8927 9.9685C32.9015 9.73938 32.8203 9.61797 32.6178 9.51908C31.7783 9.11176 30.7589 9.3399 30.1641 10.085C29.5781 10.8184 29.581 11.8651 30.1709 12.6023C30.7599 13.3386 31.7999 13.5776 32.6227 13.1379C32.7469 13.0713 32.8653 12.8785 32.876 12.7355C32.9083 12.2832 32.8878 11.8269 32.8878 11.3716Z" fill="#2AA7A4" />
<path d="M20.2331 0C21.2946 0.898837 22.36 1.79474 23.4176 2.69945C24.347 3.49548 25.2666 4.30228 26.1922 5.10418C26.4915 5.36365 26.7263 5.65053 26.5845 6.08135C26.4573 6.46712 26.1481 6.6463 25.6188 6.6463C20.5295 6.64728 15.4402 6.64728 10.3509 6.64728C10.1973 6.64728 10.0437 6.64728 9.84414 6.64728C9.84414 6.8294 9.84414 6.98116 9.84414 7.13293C9.84414 10.3631 9.84414 13.5942 9.84414 16.8243C9.84414 16.9673 9.85295 17.1132 9.83044 17.2532C9.77174 17.6282 9.44009 17.9004 9.06245 17.9004C8.68481 17.9004 8.35511 17.6272 8.29543 17.2522C8.27489 17.1249 8.28271 16.9927 8.28271 16.8625C8.28174 13.2799 8.28174 9.69824 8.28271 6.11562C8.28271 5.34309 8.54002 5.08362 9.30703 5.08362C13.9404 5.08264 18.5748 5.08362 23.2082 5.08362C23.3471 5.08362 23.4861 5.08362 23.7492 5.08362C22.4529 3.9586 21.2418 2.90898 20.0003 1.83194C19.3086 2.42529 18.6296 3.00689 17.9516 3.58947C17.392 4.07023 16.9371 4.11135 16.5927 3.71284C16.2532 3.31924 16.3706 2.86492 16.9293 2.38613C17.7002 1.72522 18.4662 1.05941 19.2391 0.400462C19.4064 0.25751 19.5894 0.135119 19.7655 0.00293726C19.921 -1.19442e-07 20.0766 0 20.2331 0Z" fill="#F39314" />
<path d="M16.2042 14.541C14.9559 14.541 13.7075 14.5419 12.4592 14.54C11.88 14.539 11.4945 14.211 11.5092 13.741C11.5239 13.2779 11.8898 12.9783 12.4552 12.9783C14.952 12.9763 17.4487 12.9763 19.9454 12.9783C20.5441 12.9783 20.8954 13.2808 20.8846 13.7763C20.8738 14.257 20.5314 14.538 19.9493 14.539C18.7009 14.5419 17.4526 14.541 16.2042 14.541Z" fill="#F39314" />
<path d="M16.1389 10.6313C14.8758 10.6313 13.6138 10.6353 12.3507 10.6294C11.8939 10.6274 11.6004 10.3758 11.527 9.95673C11.4663 9.61404 11.6767 9.24784 12.024 9.12545C12.1433 9.08335 12.2783 9.0716 12.4065 9.0716C14.9062 9.06866 17.4048 9.06768 19.9045 9.07062C20.4387 9.0716 20.7821 9.38982 20.7772 9.85882C20.7723 10.3249 20.4298 10.6294 19.8888 10.6304C18.6385 10.6343 17.3882 10.6323 16.1389 10.6313Z" fill="#F39314" />
<path d="M14.4488 18.3762C13.6954 18.3762 12.9421 18.3948 12.1908 18.3683C11.8063 18.3546 11.5284 18.0188 11.5069 17.6448C11.4883 17.3197 11.7221 16.9887 12.0567 16.8791C12.1546 16.8468 12.2583 16.8184 12.36 16.8184C13.7365 16.8145 15.114 16.8076 16.4905 16.8203C16.9963 16.8252 17.3339 17.1591 17.3407 17.6007C17.3476 18.058 17.0394 18.3762 16.514 18.3918C15.8263 18.4124 15.1375 18.3967 14.4488 18.3967C14.4488 18.3899 14.4488 18.383 14.4488 18.3762Z" fill="#F39314" />
<path d="M24.5293 16.8184C24.7759 16.8184 25.0234 16.8017 25.268 16.8223C25.7336 16.8605 26.0731 17.2081 26.0692 17.6193C26.0663 18.0344 25.7346 18.3703 25.2572 18.3908C24.7534 18.4124 24.2466 18.4124 23.7427 18.3869C23.2682 18.3634 22.9767 18.054 22.9698 17.6281C22.963 17.213 23.2594 16.8771 23.7144 16.8291C23.9834 16.8007 24.2573 16.8242 24.5303 16.8242C24.5293 16.8213 24.5293 16.8194 24.5293 16.8184Z" fill="#F39314" />
<path d="M20.2886 18.386C19.8552 18.384 19.5196 18.056 19.5128 17.6261C19.5059 17.1934 19.8718 16.8174 20.2964 16.8203C20.7005 16.8233 21.0732 17.1904 21.083 17.5958C21.0948 18.0256 20.7298 18.3879 20.2886 18.386Z" fill="#F39314" />
<path d="M9.07277 21.0452C8.62861 21.0501 8.27836 20.7035 8.28325 20.2639C8.28815 19.8546 8.64622 19.4904 9.05125 19.4825C9.46704 19.4747 9.84566 19.8566 9.84077 20.2815C9.83783 20.7055 9.5003 21.0403 9.07277 21.0452Z" fill="#F39314" />
</symbol><symbol viewBox="0 0 36 45" fill="none" id="icon-step-4">
<path d="M3.76789 44.77C3.32957 44.6256 2.87084 44.5262 2.45838 44.3273C0.903859 43.5766 0 42.3818 0 40.5904C0.00272246 30.5119 -0.00408253 20.4334 0.00544609 10.3549C0.00816855 7.85911 2.0119 5.89055 4.51384 5.87556C5.82062 5.86875 7.12877 5.8742 8.4968 5.8742C8.4968 5.32791 8.49544 4.80886 8.4968 4.29118C8.49952 3.63862 8.75408 3.29123 9.41019 3.25172C10.3957 3.19041 11.3867 3.19859 12.3749 3.20404C12.6663 3.2054 12.8065 3.11276 12.929 2.84711C13.8532 0.843124 15.8502 -0.275347 18.2854 0.0584234C20.1081 0.307729 21.4326 1.25046 22.1785 2.96563C22.2275 3.0787 22.4358 3.18224 22.5719 3.18497C23.4159 3.2054 24.2599 3.19041 25.1038 3.19859C25.3502 3.20131 25.6007 3.2163 25.8402 3.26398C26.3725 3.3716 26.6298 3.69992 26.6352 4.24758C26.6406 4.74211 26.6393 5.23799 26.642 5.73252C26.642 5.75976 26.6556 5.78701 26.6801 5.87284C26.8176 5.87284 26.9728 5.87284 27.1266 5.87284C28.2768 5.87284 29.4257 5.86875 30.576 5.8742C33.1541 5.8851 35.1293 7.85775 35.1293 10.4421C35.1334 20.462 35.1116 30.4819 35.1456 40.5032C35.1538 42.7756 33.4795 44.2973 31.6473 44.6787C31.5506 44.6992 31.4594 44.7387 31.3641 44.77C22.1676 44.77 12.9671 44.77 3.76789 44.77ZM8.4968 8.05665C6.99945 8.05665 5.56063 8.05529 4.12317 8.05937C4.05238 8.05937 3.9816 8.08662 3.91218 8.10569C2.79461 8.41222 2.13577 9.31408 2.13577 10.5483C2.13441 20.5097 2.13577 30.4724 2.13577 40.4337C2.13577 40.5059 2.13577 40.5795 2.13713 40.6517C2.15211 41.3887 2.50194 41.9159 3.13083 42.2797C3.64265 42.5767 4.1994 42.6203 4.77248 42.6203C13.3006 42.6175 21.8273 42.6189 30.3554 42.6175C30.5732 42.6175 30.7924 42.6135 31.0088 42.5944C32.2353 42.4908 32.9976 41.668 32.9976 40.4392C32.999 30.4628 32.999 20.4865 32.9976 10.5102C32.9976 9.03752 32.0121 8.04847 30.5379 8.03621C29.4611 8.02668 28.3844 8.03485 27.3076 8.03485C27.0953 8.03485 26.8843 8.03485 26.6393 8.03485C26.6393 8.86723 26.6406 9.63559 26.6393 10.4053C26.6366 11.2704 26.1928 11.7377 25.3339 11.739C20.1394 11.7431 14.9436 11.7431 9.74777 11.739C8.92151 11.7377 8.50225 11.2935 8.49817 10.4557C8.49408 9.67101 8.4968 8.8863 8.4968 8.05665ZM24.4504 5.34834C23.537 5.34834 22.6522 5.34834 21.7674 5.34834C20.8935 5.34834 20.5913 5.11402 20.349 4.25303C19.9556 2.85528 18.706 1.94389 17.2904 2.02154C16.0612 2.08965 14.9735 3.03102 14.6019 4.35112C14.3937 5.0895 14.0533 5.34834 13.2843 5.34834C12.6445 5.34834 12.0033 5.34834 11.3636 5.34834C11.1376 5.34834 10.9103 5.34834 10.6816 5.34834C10.6816 6.78968 10.6816 8.16836 10.6816 9.57564C15.2771 9.57564 19.8522 9.57564 24.4504 9.57564C24.4504 8.17244 24.4504 6.79377 24.4504 5.34834Z" fill="#2AA7A4" />
<path d="M22.6322 17.5902C24.6114 17.5902 26.5906 17.5888 28.5699 17.5902C29.324 17.5902 29.7936 17.9935 29.8045 18.6406C29.8154 19.3108 29.343 19.7495 28.5753 19.7495C24.6019 19.7536 20.6298 19.7536 16.6564 19.7495C15.9295 19.7481 15.434 19.2972 15.4326 18.6664C15.4313 18.0248 15.9172 17.5916 16.6509 17.5902C18.6451 17.5888 20.6393 17.5902 22.6322 17.5902Z" fill="#F39314" />
<path d="M22.6363 34.6358C24.6305 34.6358 26.6233 34.633 28.6175 34.6371C29.3471 34.6385 29.814 35.0799 29.8045 35.7379C29.7977 36.197 29.5227 36.5852 29.0844 36.7228C28.9211 36.7746 28.7427 36.8005 28.5712 36.8005C24.6128 36.8046 20.6543 36.8046 16.6959 36.8018C16.0534 36.8018 15.611 36.5062 15.4789 36.0131C15.2788 35.2706 15.7906 34.6398 16.6128 34.6371C18.6206 34.6317 20.6284 34.6358 22.6363 34.6358Z" fill="#F39314" />
<path d="M22.5887 28.2531C20.5659 28.2531 18.5431 28.2572 16.5217 28.2504C15.9622 28.2491 15.5593 27.9098 15.464 27.4017C15.366 26.8799 15.6233 26.3622 16.1051 26.2042C16.3474 26.1252 16.6197 26.1143 16.8783 26.1143C20.7047 26.1088 24.5325 26.1102 28.3589 26.1116C28.5468 26.1116 28.7387 26.1184 28.9238 26.1456C29.418 26.2206 29.7664 26.6006 29.8005 27.0843C29.8372 27.6115 29.5636 28.057 29.0858 28.2C28.9089 28.2518 28.7129 28.2531 28.5264 28.2531C26.5471 28.2572 24.5679 28.2559 22.59 28.2559C22.5887 28.2545 22.5887 28.2531 22.5887 28.2531Z" fill="#F39314" />
<path d="M8.60962 35.4995C9.68908 34.4723 10.7753 33.4423 11.8562 32.407C12.2237 32.0555 12.6321 31.8947 13.1235 32.11C13.8476 32.4274 14.0491 33.2843 13.4842 33.8347C12.0971 35.1848 10.6882 36.513 9.27118 37.8318C8.80156 38.2691 8.25434 38.2282 7.79561 37.7677C7.09593 37.0675 6.40443 36.3591 5.71837 35.6452C5.22697 35.133 5.20246 34.4368 5.64214 34.0077C6.06957 33.5908 6.73112 33.6467 7.23206 34.148C7.45802 34.3742 7.67173 34.614 7.89906 34.8387C8.11686 35.0526 8.34554 35.2542 8.60962 35.4995Z" fill="#F39314" />
<path d="M8.59149 18.4703C9.69272 17.4213 10.7776 16.39 11.8612 15.3546C12.2151 15.0168 12.6071 14.8547 13.089 15.0508C13.8404 15.3587 14.0582 16.2292 13.4797 16.7919C12.0912 18.1419 10.6823 19.4689 9.2653 20.7876C8.80928 21.2126 8.26343 21.1813 7.82239 20.7426C7.10094 20.0233 6.38629 19.2972 5.6839 18.5588C5.217 18.067 5.21427 17.3709 5.64851 16.954C6.07185 16.548 6.72116 16.5957 7.20712 17.0752C7.43444 17.3 7.64815 17.5398 7.87412 17.7673C8.09872 17.9935 8.32877 18.2142 8.59149 18.4703Z" fill="#F39314" />
<path d="M8.64131 26.948C9.62957 26.0053 10.6478 25.0326 11.6687 24.0626C11.8266 23.9127 11.9831 23.7534 12.1655 23.6416C12.6216 23.3624 13.2137 23.4972 13.569 23.9359C13.9066 24.3528 13.9106 24.8923 13.5104 25.2805C12.1111 26.636 10.6995 27.9793 9.27564 29.3103C8.83733 29.7203 8.24656 29.6931 7.82457 29.2735C7.09359 28.5447 6.3735 27.8036 5.6643 27.0543C5.22054 26.5856 5.22462 25.8868 5.64116 25.4821C6.07131 25.0653 6.69884 25.1116 7.19568 25.5884C7.65714 26.0298 8.12541 26.4644 8.64131 26.948Z" fill="#F39314" />
</symbol><symbol viewBox="0 0 16 16" fill="none" id="icon-timeline-next">
<path d="M8 0C12.4183 0 16 3.58172 16 8C16 12.4183 12.4183 16 8 16C3.58172 16 0 12.4183 0 8C0 3.58172 3.58172 0 8 0Z" fill="#F39314" />
<path fill-rule="evenodd" clip-rule="evenodd" d="M6.29289 12.7071C5.90237 12.3166 5.90237 11.6834 6.29289 11.2929L9.58579 8L6.29289 4.70711C5.90237 4.31658 5.90237 3.68342 6.29289 3.29289C6.68342 2.90237 7.31658 2.90237 7.70711 3.29289L11.7071 7.29289C11.8946 7.48043 12 7.73478 12 8C12 8.26522 11.8946 8.51957 11.7071 8.70711L7.70711 12.7071C7.31658 13.0976 6.68342 13.0976 6.29289 12.7071Z" fill="white" />
</symbol><symbol viewBox="0 0 16 16" fill="none" id="icon-timeline-prev">
<path d="M8 16C3.58172 16 0 12.4183 0 8C0 3.58172 3.58172 0 8 0C12.4183 0 16 3.58172 16 8C16 12.4183 12.4183 16 8 16Z" fill="#F39314" />
<path fill-rule="evenodd" clip-rule="evenodd" d="M9.70711 3.29289C10.0976 3.68342 10.0976 4.31658 9.70711 4.70711L6.41421 8L9.70711 11.2929C10.0976 11.6834 10.0976 12.3166 9.70711 12.7071C9.31658 13.0976 8.68342 13.0976 8.29289 12.7071L4.29289 8.70711C4.10536 8.51957 4 8.26522 4 8C4 7.73478 4.10536 7.48043 4.29289 7.29289L8.29289 3.29289C8.68342 2.90237 9.31658 2.90237 9.70711 3.29289Z" fill="white" />
</symbol></defs><use id="icon-1-usage" xlink:href="#icon-1" class="sprite-symbol-usage" /><use id="icon-2-usage" xlink:href="#icon-2" class="sprite-symbol-usage" /><use id="icon-3-usage" xlink:href="#icon-3" class="sprite-symbol-usage" /><use id="icon-4-usage" xlink:href="#icon-4" class="sprite-symbol-usage" /><use id="icon-arrow-back-usage" xlink:href="#icon-arrow-back" class="sprite-symbol-usage" /><use id="icon-arrow-circle-usage" xlink:href="#icon-arrow-circle" class="sprite-symbol-usage" /><use id="icon-arrow-drop-usage" xlink:href="#icon-arrow-drop" class="sprite-symbol-usage" /><use id="icon-arrow-drop-orange-usage" xlink:href="#icon-arrow-drop-orange" class="sprite-symbol-usage" /><use id="icon-arrow-next-usage" xlink:href="#icon-arrow-next" class="sprite-symbol-usage" /><use id="icon-arrow-next-green-usage" xlink:href="#icon-arrow-next-green" class="sprite-symbol-usage" /><use id="icon-arrow-next-purple-usage" xlink:href="#icon-arrow-next-purple" class="sprite-symbol-usage" /><use id="icon-calendar-usage" xlink:href="#icon-calendar" class="sprite-symbol-usage" /><use id="icon-call-usage" xlink:href="#icon-call" class="sprite-symbol-usage" /><use id="icon-camera-usage" xlink:href="#icon-camera" class="sprite-symbol-usage" /><use id="icon-eye-usage" xlink:href="#icon-eye" class="sprite-symbol-usage" /><use id="icon-glass-usage" xlink:href="#icon-glass" class="sprite-symbol-usage" /><use id="icon-mail-usage" xlink:href="#icon-mail" class="sprite-symbol-usage" /><use id="icon-marker-usage" xlink:href="#icon-marker" class="sprite-symbol-usage" /><use id="icon-slider-next-usage" xlink:href="#icon-slider-next" class="sprite-symbol-usage" /><use id="icon-slider-prev-usage" xlink:href="#icon-slider-prev" class="sprite-symbol-usage" /><use id="icon-step-1-usage" xlink:href="#icon-step-1" class="sprite-symbol-usage" /><use id="icon-step-2-usage" xlink:href="#icon-step-2" class="sprite-symbol-usage" /><use id="icon-step-3-usage" xlink:href="#icon-step-3" class="sprite-symbol-usage" /><use id="icon-step-4-usage" xlink:href="#icon-step-4" class="sprite-symbol-usage" /><use id="icon-timeline-next-usage" xlink:href="#icon-timeline-next" class="sprite-symbol-usage" /><use id="icon-timeline-prev-usage" xlink:href="#icon-timeline-prev" class="sprite-symbol-usage" /></svg>